<?xml version="1.0" encoding="UTF-8"?>
<svg width="14px" height="14px" viewBox="0 0 14 14" version="1.1" xmlns="http://www.w3.org/2000/svg" xmlns:xlink="http://www.w3.org/1999/xlink">
    <title>Group 5</title>
    <g id="Page-1" stroke="none" stroke-width="1" fill="none" fill-rule="evenodd">
        <g id="Group-5">
            <rect id="Rectangle" fill="#000000" x="0" y="0" width="14" height="14" rx="2"></rect>
            <g id="b" transform="translate(3, 3)" fill="#FFFFFF" fill-rule="nonzero">
                <path d="M3.36940299,9 C5.1380597,9 6,7.37532468 6,5.78571429 C6,4.1961039 5.1380597,2.57142857 3.36940299,2.57142857 C2.23880597,2.57142857 1.7238806,3.28441558 1.56716418,3.55324675 L1.48880597,3.55324675 L1.48880597,0 L0,0 L0,8.88311688 L1.48880597,8.88311688 L1.48880597,8.01818182 L1.56716418,8.01818182 C1.7238806,8.28701299 2.23880597,9 3.36940299,9 Z M2.97761194,7.72597403 C1.97014925,7.72597403 1.46641791,6.74415584 1.46641791,5.78571429 C1.46641791,4.82727273 1.97014925,3.84545455 2.97761194,3.84545455 C3.99626866,3.84545455 4.5,4.82727273 4.5,5.78571429 C4.5,6.74415584 3.99626866,7.72597403 2.97761194,7.72597403 Z" id="Shape"></path>
            </g>
            <circle id="Oval" fill="#10B981" cx="9" cy="5" r="2"></circle>
        </g>
    </g>
</svg>